<svg width="41" height="41" viewBox="0 0 41 41" fill="none" xmlns="http://www.w3.org/2000/svg">
<path d="M20.5 0C9.17802 0 0 9.17802 0 20.5C0 31.822 9.17802 41 20.5 41C31.822 41 41 31.822 41 20.5C41 9.17802 31.822 0 20.5 0ZM15.4818 28.9968H11.3305V15.6377H15.4818V28.9968ZM13.3805 13.9977C12.0694 13.9977 11.2216 13.0687 11.2216 11.9199C11.2216 10.7476 12.095 9.84641 13.4339 9.84641C14.7728 9.84641 15.5928 10.7476 15.6184 11.9199C15.6184 13.0687 14.7728 13.9977 13.3805 13.9977ZM30.6432 28.9968H26.492V21.5933C26.492 19.8701 25.8898 18.6998 24.3886 18.6998C23.2419 18.6998 22.5607 19.4921 22.2596 20.2544C22.1485 20.5256 22.1208 20.91 22.1208 21.2922V28.9947H17.9674V19.8978C17.9674 18.2301 17.914 16.8356 17.8585 15.6355H21.4652L21.6553 17.4912H21.7385C22.2852 16.6199 23.6241 15.3344 25.8642 15.3344C28.5954 15.3344 30.6432 17.1645 30.6432 21.0979V28.9968Z" fill="#E18D8A"/>
<circle cx="21" cy="21" r="15" fill="#E18D8A"/>
<path d="M20.9972 17.3318C18.9774 17.3318 17.329 18.9801 17.329 21C17.329 23.0199 18.9774 24.6682 20.9972 24.6682C23.0171 24.6682 24.6655 23.0199 24.6655 21C24.6655 18.9801 23.0171 17.3318 20.9972 17.3318ZM31.9992 21C31.9992 19.481 32.0129 17.9757 31.9276 16.4594C31.8423 14.6982 31.4406 13.1352 30.1527 11.8473C28.8621 10.5567 27.3018 10.1577 25.5406 10.0724C24.0215 9.98706 22.5163 10.0008 21 10.0008C19.481 10.0008 17.9757 9.98706 16.4594 10.0724C14.6982 10.1577 13.1352 10.5594 11.8473 11.8473C10.5567 13.1379 10.1577 14.6982 10.0724 16.4594C9.98706 17.9785 10.0008 19.4837 10.0008 21C10.0008 22.5163 9.98706 24.0243 10.0724 25.5406C10.1577 27.3018 10.5594 28.8648 11.8473 30.1527C13.1379 31.4433 14.6982 31.8423 16.4594 31.9276C17.9785 32.0129 19.4837 31.9992 21 31.9992C22.519 31.9992 24.0243 32.0129 25.5406 31.9276C27.3018 31.8423 28.8648 31.4406 30.1527 30.1527C31.4433 28.8621 31.8423 27.3018 31.9276 25.5406C32.0157 24.0243 31.9992 22.519 31.9992 21ZM20.9972 26.6441C17.8739 26.6441 15.3532 24.1234 15.3532 21C15.3532 17.8766 17.8739 15.3559 20.9972 15.3559C24.1206 15.3559 26.6413 17.8766 26.6413 21C26.6413 24.1234 24.1206 26.6441 20.9972 26.6441ZM26.8725 16.4429C26.1432 16.4429 25.5543 15.854 25.5543 15.1248C25.5543 14.3955 26.1432 13.8066 26.8725 13.8066C27.6017 13.8066 28.1906 14.3955 28.1906 15.1248C28.1908 15.2979 28.1569 15.4694 28.0907 15.6295C28.0245 15.7895 27.9275 15.9349 27.805 16.0573C27.6826 16.1798 27.5372 16.2769 27.3772 16.343C27.2171 16.4092 27.0456 16.4431 26.8725 16.4429Z" fill="white"/>
</svg>
