<svg width="42" height="42" viewBox="0 0 42 42" fill="none" xmlns="http://www.w3.org/2000/svg">
<path d="M18.1297 5.08608C17.1794 5.24865 16.2977 5.53001 15.4912 5.93643C14.966 6.19904 14.8659 6.32409 14.8534 6.69924C14.8472 6.89932 14.8847 6.97435 15.0535 7.12441C15.3161 7.36201 15.5474 7.35576 16.0602 7.11816C16.6854 6.81804 17.417 6.58044 18.161 6.43038C18.7613 6.30533 18.9801 6.29282 19.8805 6.32409C21.2935 6.36785 22.1752 6.59295 23.3444 7.19944C25.2014 8.16234 26.652 9.85678 27.3148 11.8451C28.2777 14.7213 27.4898 17.9726 25.3077 20.111C24.5324 20.8738 23.4819 21.5553 22.5065 21.9367C21.081 22.4807 19.2114 22.5932 17.6608 22.2118C15.2598 21.6241 13.1214 19.7671 12.1711 17.4349C11.2957 15.309 11.3645 13.0581 12.3711 10.8259C12.5962 10.3257 12.615 10.2444 12.5587 10.0381C12.4774 9.74424 12.2398 9.55666 11.946 9.55666C11.5958 9.55666 11.4458 9.70672 11.1206 10.4008C10.2015 12.3516 10.0014 14.6087 10.5579 16.7846C11.377 19.9859 14.0281 22.6308 17.2669 23.4686C18.3111 23.7437 19.943 23.8375 20.9622 23.6812C23.682 23.2748 26.0017 21.7992 27.4898 19.542C29.5594 16.4032 29.5594 12.339 27.4898 9.20026C26.3956 7.54333 24.82 6.28032 22.9442 5.56127C22.5003 5.39245 21.5374 5.14861 20.9622 5.06107C20.3682 4.96728 18.7175 4.98604 18.1297 5.08608Z" fill="#E18D8A"/>
<path d="M13.2151 7.58709C12.7837 7.76842 12.6774 8.26862 12.9963 8.61251C13.2402 8.87512 13.6528 8.88763 13.8967 8.64378C14.4094 8.13107 13.8779 7.29948 13.2151 7.58709Z" fill="#E18D8A"/>
<path d="M18.5987 7.53713C18.2173 7.5934 17.4482 7.81224 17.0043 7.98732C15.3411 8.66884 13.8717 10.1444 13.2465 11.7764C12.8463 12.8143 12.79 13.1082 12.79 14.3712C12.79 15.3528 12.815 15.6029 12.9213 15.9968C13.6466 18.6042 15.4349 20.4049 17.9672 21.0739C18.5924 21.2365 20.0868 21.299 20.7308 21.1927C23.2756 20.7613 25.3577 19.0043 26.183 16.5908C26.6332 15.2715 26.6457 13.5333 26.2143 12.2453C25.3952 9.78805 23.3381 8.01233 20.7933 7.56214C20.4369 7.49962 18.9988 7.48086 18.5987 7.53713ZM21.256 9.02524C23.6632 9.79431 25.2076 11.8889 25.2076 14.3712C25.2076 16.2782 24.3073 17.9601 22.6941 19.0418C21.85 19.6108 21.0122 19.8734 19.9055 19.9172C18.9238 19.961 18.3048 19.8547 17.5045 19.517C15.9413 18.8543 14.8409 17.6288 14.2781 15.9343C14.1156 15.4404 14.1031 15.3341 14.1031 14.3712C14.1031 13.4083 14.1156 13.302 14.2781 12.808C14.8409 11.1073 15.9351 9.89435 17.5045 9.22532C18.3236 8.88143 18.7612 8.8064 19.8179 8.83141C20.5932 8.85017 20.7996 8.88143 21.256 9.02524Z" fill="#E18D8A"/>
<path d="M19.1866 10.1757C19.0178 10.3445 19.0053 10.3946 19.0053 10.826V11.2887L18.7614 11.395C18.0424 11.7201 17.6047 12.5705 17.7547 13.352C17.8986 14.1273 18.2862 14.5275 19.2804 14.9339C19.6493 15.0902 20.0244 15.2841 20.1057 15.3654C20.2995 15.5592 20.2995 15.8093 20.0995 16.0219C19.9119 16.222 19.6493 16.2345 19.2554 16.0531C18.7051 15.803 18.255 15.9281 18.1236 16.372C18.0111 16.7409 18.1737 17.016 18.6364 17.2286L19.0053 17.3974V17.8914C19.0053 18.3478 19.0178 18.3916 19.1866 18.5667C19.3366 18.7105 19.4242 18.748 19.6493 18.748C20.1182 18.748 20.3183 18.4479 20.3183 17.7413C20.3183 17.46 20.3371 17.4224 20.4871 17.3662C20.7872 17.2536 21.1937 16.8722 21.3625 16.5408C21.6876 15.8906 21.6126 15.1278 21.1561 14.5338C20.9811 14.3024 20.8185 14.1899 20.3621 13.971C20.0432 13.821 19.6805 13.6584 19.5492 13.6146C19.0678 13.4458 18.899 13.0269 19.1928 12.7143C19.3742 12.5204 19.5492 12.5204 20.087 12.708C20.5809 12.8831 20.8248 12.8518 21.0561 12.5892C21.2249 12.3954 21.2374 12.0265 21.0936 11.8139C21.0373 11.7326 20.8373 11.6013 20.6559 11.52L20.3183 11.37V11.0323C20.3183 10.2883 20.1307 9.9944 19.6493 9.9944C19.4242 9.9944 19.3366 10.0319 19.1866 10.1757Z" fill="#E18D8A"/>
<path d="M30.4913 24.9067C30.1349 25.0068 29.9536 25.1131 27.1962 26.87L25.039 28.2393L24.9265 28.0142C24.6514 27.4515 23.9448 26.9638 23.3133 26.895C23.1258 26.8763 22.3129 26.9138 21.5064 26.9701C20.6998 27.0326 19.7431 27.0826 19.3805 27.0889C18.6114 27.0951 18.6052 27.0889 17.1483 26.276C15.5352 25.3694 14.5097 25.0755 12.784 25.0193C10.9708 24.9567 9.33887 25.2256 6.98165 25.9697C6.43768 26.1385 6.21884 26.2385 6.12505 26.3573C6 26.5136 6 26.6137 6 30.484V34.4544L6.18132 34.6357C6.31263 34.767 6.42517 34.817 6.57524 34.817C6.69403 34.817 7.43184 34.5919 8.21341 34.3231L9.63274 33.8229L12.8466 35.1984C14.616 35.9487 16.2667 36.6365 16.5168 36.7178C17.2546 36.9554 17.7923 37.0242 18.6364 36.9929C19.3117 36.9679 19.4993 36.9304 20.0808 36.7366C21.0562 36.4052 22.5755 35.6048 22.7819 35.3047C22.9069 35.1234 22.9132 34.6982 22.7881 34.5232C22.7381 34.4481 22.5943 34.3543 22.4755 34.3168C22.2004 34.223 22.0316 34.2793 21.4251 34.6482C20.7623 35.0484 19.8994 35.4298 19.3117 35.5736C18.5989 35.7549 17.6923 35.7174 16.9732 35.4798C16.6981 35.386 15.0287 34.6857 13.253 33.9292C11.4835 33.1663 9.93911 32.5223 9.82657 32.4911C9.65775 32.4411 9.44516 32.4973 8.4385 32.8412L7.25051 33.2476V30.2527V27.2639L7.70695 27.1264C9.38889 26.6074 10.6707 26.3761 12.04 26.3323C13.2592 26.2948 14.0095 26.3823 14.8911 26.6824C15.4914 26.8825 15.6352 26.9576 16.9107 27.6578C17.4297 27.9455 18.0174 28.2268 18.2238 28.2894C18.7052 28.4269 19.6243 28.4269 21.6001 28.2831C22.4067 28.2206 23.1383 28.1893 23.2196 28.2143C23.601 28.3081 23.9448 28.8146 23.8573 29.1585C23.801 29.3773 23.5072 29.6962 23.2696 29.7962C23.157 29.84 21.7314 30.1339 20.112 30.4402C16.2917 31.1593 16.5293 31.1093 16.3793 31.2968C16.0979 31.6595 16.2917 32.2722 16.7169 32.3473C16.9357 32.391 23.0007 31.2781 23.601 31.0905C24.1824 30.9029 24.7389 30.4465 24.9515 29.9838C25.0015 29.8713 25.8706 29.2898 27.7839 28.0768C29.297 27.1139 30.6288 26.2823 30.7414 26.226C31.1666 26.0134 31.6668 26.1447 31.8481 26.5261C32.0794 27.0076 32.0294 27.4015 31.7105 27.7016C31.6167 27.7891 30.3287 28.6833 28.8406 29.6837C27.3587 30.6841 26.0707 31.5907 25.9832 31.697C25.7581 31.9596 25.7643 32.2535 26.0019 32.5161C26.1583 32.6912 26.227 32.7224 26.4584 32.7224C26.7085 32.7224 26.9336 32.5786 29.6034 30.7716C31.1853 29.7024 32.5796 28.7145 32.7109 28.5832C33.8176 27.4265 33.3112 25.3319 31.8231 24.913C31.4042 24.7942 30.9039 24.7942 30.4913 24.9067Z" fill="#E18D8A"/>
<path d="M24.1574 32.8788C24.0824 32.9038 23.9636 33.0101 23.8823 33.1101C23.6947 33.354 23.7385 33.7791 23.9761 33.9855C24.3325 34.2918 24.9578 34.0668 25.0453 33.6041C25.1328 33.1101 24.6201 32.6912 24.1574 32.8788Z" fill="#E18D8A"/>
</svg>
