<svg width="68" height="49" viewBox="0 0 68 49" fill="none" xmlns="http://www.w3.org/2000/svg">
<path opacity="0.23" d="M15.4554 19.5411C14.6994 19.5411 13.974 19.6524 13.2519 19.7538C13.4858 18.9945 13.7265 18.222 14.113 17.5281C14.4994 16.5199 15.1028 15.646 15.7028 14.7655C16.2045 13.813 17.0893 13.1681 17.7402 12.3531C18.4215 11.561 19.3504 11.034 20.086 10.3761C20.808 9.68871 21.7538 9.34502 22.5064 8.86059C23.2928 8.42525 23.9776 7.94409 24.7098 7.71496L26.537 6.98831L28.1438 6.34349L26.4997 0L24.4759 0.471341C23.8284 0.628456 23.0386 0.811755 22.1403 1.03106C21.2216 1.19472 20.2419 1.64315 19.1504 2.0523C18.0724 2.5171 16.8249 2.83133 15.6655 3.57762C14.4994 4.29118 13.1536 4.88691 11.9672 5.84268C10.818 6.82792 9.4315 7.68223 8.40775 8.93587C7.28908 10.1077 6.18397 11.3384 5.32632 12.7393C4.33308 14.0748 3.65848 15.5412 2.9466 16.9912C2.30252 18.4413 1.78386 19.924 1.36012 21.3643C0.556716 24.2512 0.197385 26.9942 0.0583988 29.3411C-0.0568581 31.6912 0.0109401 33.6454 0.153316 35.0594C0.204165 35.7271 0.299083 36.3752 0.366881 36.8236L0.451628 37.3735L0.539766 37.3539C1.1427 40.0734 2.53067 42.5725 4.54313 44.5621C6.55558 46.5517 9.11028 47.9506 11.9117 48.5968C14.7131 49.2431 17.6468 49.1103 20.3733 48.2139C23.0998 47.3175 25.5078 45.694 27.3187 43.5314C29.1296 41.3687 30.2694 38.7552 30.6063 35.9932C30.9432 33.2312 30.4633 30.4335 29.2222 27.9238C27.9812 25.4142 26.0296 23.295 23.5934 21.8115C21.1571 20.3281 18.3356 19.5409 15.4554 19.5411ZM52.7444 19.5411C51.9884 19.5411 51.263 19.6524 50.5409 19.7538C50.7748 18.9945 51.0155 18.222 51.402 17.5281C51.7884 16.5199 52.3918 15.646 52.9918 14.7655C53.4935 13.813 54.3783 13.1681 55.0292 12.3531C55.7106 11.561 56.6394 11.034 57.375 10.3761C58.097 9.68871 59.0428 9.34502 59.7954 8.86059C60.5818 8.42525 61.2666 7.94409 61.9988 7.71496L63.826 6.98831L65.4328 6.34349L63.7887 0L61.7649 0.471341C61.1175 0.628456 60.3276 0.811755 59.4293 1.03106C58.5106 1.19472 57.5309 1.64315 56.4394 2.0523C55.3648 2.52037 54.1139 2.83133 52.9546 3.58089C51.7884 4.29445 50.4426 4.89018 49.2562 5.84596C48.107 6.83119 46.7205 7.6855 45.6968 8.93587C44.5781 10.1077 43.473 11.3384 42.6153 12.7393C41.6221 14.0748 40.9475 15.5412 40.2356 16.9912C39.5915 18.4413 39.0729 19.924 38.6491 21.3643C37.8457 24.2512 37.4864 26.9942 37.3474 29.3411C37.2322 31.6912 37.2999 33.6454 37.4423 35.0594C37.4932 35.7271 37.5881 36.3752 37.6559 36.8236L37.7406 37.3735L37.8288 37.3539C38.4317 40.0734 39.8197 42.5725 41.8321 44.5621C43.8446 46.5517 46.3993 47.9506 49.2007 48.5968C52.0021 49.2431 54.9358 49.1103 57.6623 48.2139C60.3888 47.3175 62.7968 45.694 64.6077 43.5314C66.4186 41.3687 67.5584 38.7552 67.8953 35.9932C68.2322 33.2312 67.7523 30.4335 66.5113 27.9238C65.2702 25.4142 63.3187 23.295 60.8824 21.8115C58.4461 20.3281 55.6246 19.5409 52.7444 19.5411Z" fill="#E18D8A"/>
</svg>
