<svg width="42" height="42" viewBox="0 0 42 42" fill="none" xmlns="http://www.w3.org/2000/svg">
<path d="M13.0055 9.24493C11.587 9.62154 10.4446 10.2994 9.26458 11.4418C8.02178 12.6721 7.29367 14.0278 6.97983 15.7226L6.77897 16.7771H6.28938C5.52361 16.7771 5.32275 16.9528 5.32275 17.6056C5.32275 19.0995 6.06342 21.3717 7.03004 22.8154C8.37328 24.8365 10.7836 26.3931 13.5202 26.9957L13.8592 27.071V28.5775V30.0839H11.7753H9.6914L9.26458 30.5107C8.9884 30.7869 8.8252 31.1007 8.76244 31.4271C8.69967 31.8414 8.62435 31.9418 8.29795 32.0422C7.95901 32.1301 7.89624 32.218 7.89624 32.5318V32.9084L15.0643 32.9461C21.2281 32.9712 22.2575 32.9461 22.3956 32.7955C22.6467 32.4816 22.4333 32.105 21.9437 32.0171C21.5922 31.9544 21.5169 31.8791 21.5169 31.6405C21.5169 31.1133 21.1779 30.4856 20.7762 30.2847C20.4749 30.1216 19.9728 30.0839 18.3785 30.0839H16.3574L16.395 28.5524L16.4327 27.0334L17.1984 26.8702C19.0438 26.4936 20.5377 25.6525 22.0943 24.1209C23.061 23.1669 23.3246 22.8154 23.8142 21.7985C24.5046 20.4051 24.7683 19.4761 24.8687 18.1078C24.9566 16.9528 24.8436 16.7771 23.9523 16.7771H23.4376L23.3623 16.1117C23.0484 13.011 20.3871 10.0609 17.1733 9.24493C15.918 8.91854 14.2484 8.91854 13.0055 9.24493ZM16.9348 10.1865C18.2278 10.5128 19.2321 11.1029 20.2615 12.1323C21.8182 13.6889 22.4458 15.1828 22.4458 17.342C22.4458 19.3631 21.7428 21.0328 20.2992 22.4764C18.8806 23.8824 17.1984 24.5854 15.1773 24.598C13.0181 24.6231 11.2732 23.8699 9.77928 22.2756C8.42349 20.8444 7.83347 19.3129 7.83347 17.2165C7.83347 16.162 7.89624 15.7979 8.18497 14.9568C9.00096 12.6218 10.9091 10.8267 13.2441 10.199C14.1479 9.96049 16.0059 9.94793 16.9348 10.1865ZM6.96727 18.9112C7.33133 20.5808 8.04688 21.8989 9.3399 23.192C10.5325 24.4097 11.6121 25.0122 13.1687 25.3888C14.2735 25.6399 16.1942 25.6399 17.1859 25.3763C20.2741 24.5729 22.7095 21.9868 23.2744 18.9112C23.4878 17.7939 23.4878 17.7814 23.7138 17.7814C23.9774 17.7814 23.9523 18.2835 23.6635 19.451C22.5588 23.7569 18.5291 26.5563 14.1354 26.0542C12.064 25.8157 10.3693 24.9871 8.90053 23.5058C7.51963 22.0998 6.64088 20.3298 6.38981 18.4342C6.31449 17.8316 6.32704 17.7563 6.5279 17.8065C6.69109 17.8316 6.80408 18.0952 6.96727 18.9112ZM15.3656 28.6528C15.3656 29.9709 15.3405 30.0964 15.1522 30.0588C14.9514 30.0211 14.9262 29.8328 14.8886 28.6528C14.8635 27.661 14.9011 27.2468 15.0141 27.184C15.3154 26.9957 15.3656 27.2217 15.3656 28.6528ZM20.4875 31.5527L20.5251 31.9669H15.1271H9.71651V31.6782C9.71651 31.0756 9.70396 31.0882 15.2401 31.1133L20.4498 31.1509L20.4875 31.5527Z" fill="#E18D8A"/>
<path d="M32.878 13.5383C32.4512 13.6889 31.7231 14.2036 31.4092 14.5802C31.133 14.8941 30.8066 15.8356 30.8066 16.2875C30.8066 16.4758 31.0326 17.2667 31.3088 18.0325L31.8109 19.4385V25.414C31.8109 30.9752 31.836 31.4397 32.0494 31.9167C32.3884 32.67 33.0161 33.0215 33.8948 32.9461C34.6857 32.8834 35.1627 32.5821 35.4766 31.9544C35.6774 31.5652 35.7025 30.9878 35.7025 25.5646V19.5891L36.2172 18.0952C36.7947 16.4382 36.8198 15.8481 36.3428 14.9066C35.7402 13.7517 34.1208 13.0989 32.878 13.5383ZM34.648 14.5928C35.7025 15.0949 35.916 16.0616 35.3259 17.681C34.987 18.635 34.8866 18.7857 34.6355 18.7857C34.397 18.7857 34.3468 18.7104 34.284 18.1957C34.2087 17.5178 33.9199 17.2165 33.5559 17.4173C33.3676 17.5052 33.3174 17.681 33.3174 18.158C33.3174 18.7606 33.3048 18.7857 32.9659 18.7857C32.6269 18.7857 32.5893 18.7229 32.2126 17.6182C31.7482 16.3001 31.7356 16.0741 32.0118 15.4841C32.4512 14.5677 33.694 14.1409 34.648 14.5928ZM34.6983 20.2545V20.7315L33.7567 20.6938L32.8152 20.6436V20.2168V19.79H33.7567H34.6983V20.2545ZM34.6983 26.6317C34.6983 31.3016 34.6857 31.4774 34.4472 31.7159C34.1082 32.0548 33.4052 32.0548 33.0663 31.6908C32.8278 31.4271 32.8152 31.2765 32.8152 26.6066V21.7985H33.7567H34.6983V26.6317Z" fill="#E18D8A"/>
<path d="M27.4798 17.9069C27.1408 18.045 26.714 18.522 26.5508 18.9489C26.4755 19.1497 26.4127 20.1666 26.4127 21.2336C26.4127 23.0413 26.4002 23.1794 26.1617 23.305C25.9608 23.4054 25.9106 23.5686 25.9106 24.0331C25.9106 24.485 25.8478 24.6607 25.6595 24.7863C25.421 24.9369 25.4084 25.075 25.4084 28.3641C25.4084 32.9587 25.4084 32.9461 27.869 32.9963C29.3879 33.0214 29.6767 32.9336 30.0533 32.3059C30.2792 31.9293 30.3043 31.6531 30.3043 28.4394C30.3043 25.1378 30.2918 24.962 30.0533 24.7486C29.8775 24.5854 29.8022 24.3595 29.8022 23.9954C29.8022 23.6314 29.7269 23.4054 29.5511 23.2422C29.3252 23.0288 29.3001 22.853 29.3001 21.083C29.3001 18.8861 29.1871 18.4342 28.5217 18.0325C28.0824 17.7688 27.869 17.7437 27.4798 17.9069ZM28.233 19.2501C28.4464 19.7523 28.3962 20.2042 28.0949 20.6059C27.9066 20.857 27.9066 20.857 27.6555 20.5557C27.3668 20.2042 27.3417 19.451 27.6179 19.0618C27.8815 18.6727 28.007 18.7103 28.233 19.2501ZM28.3334 22.3634C28.3209 22.7024 28.3083 23.0288 28.3083 23.079C28.2958 23.1418 28.0949 23.1794 27.8564 23.1794H27.417V22.4137V21.6604L27.8815 21.6981L28.3585 21.7358L28.3334 22.3634ZM28.7979 24.4348C28.7979 24.6607 28.71 24.6859 27.8564 24.6859C27.0028 24.6859 26.9149 24.6607 26.9149 24.4348C26.9149 24.2088 27.0028 24.1837 27.8564 24.1837C28.71 24.1837 28.7979 24.2088 28.7979 24.4348ZM29.3001 28.7658C29.3001 31.5527 29.275 31.854 29.0866 31.9293C28.9737 31.9795 28.3711 32.0172 27.7685 32.0172C26.9149 32.0297 26.6261 31.992 26.5383 31.8414C26.4629 31.741 26.4127 30.335 26.4127 28.6653V25.6901H27.8564H29.3001V28.7658Z" fill="#E18D8A"/>
</svg>
