<svg width="42" height="42" viewBox="0 0 42 42" fill="none" xmlns="http://www.w3.org/2000/svg">
<path d="M17.2422 6.08719C16.2285 6.29813 15.2499 6.8665 14.3417 7.78059C13.1874 8.94077 12.3846 10.5873 11.9393 12.685C11.4998 14.7593 11.8104 17.7242 12.5604 18.6793C12.6776 18.8316 12.6835 18.8316 13.5389 18.8375L14.4003 18.8433L15.1913 19.6871C15.6249 20.15 15.9882 20.566 15.9999 20.6071C16.0234 20.7125 15.1327 21.5563 14.3651 22.1481C13.8261 22.57 13.6561 22.6579 12.8944 22.9626L12.0389 23.3024L12.285 24.0114C12.4256 24.404 12.7831 25.4236 13.0878 26.2849L13.6386 27.8553H14.9628C15.6894 27.8553 17.2773 27.8729 18.4902 27.8963L20.6993 27.9315V28.6463C20.6993 30.6854 21.4786 32.5194 22.9493 33.9375C24.3849 35.3203 26.0724 36 28.0764 36C29.3772 36 30.3675 35.7715 31.4632 35.2148C33.3148 34.2832 34.7211 32.5429 35.2602 30.5331C36.2387 26.8885 34.3168 23.0798 30.8186 21.7086C29.8987 21.3512 29.1604 21.2165 28.1115 21.2165C26.7463 21.2106 25.8029 21.445 24.59 22.0837L23.9923 22.3942L23.4767 21.9372C23.1896 21.6852 22.8263 21.3512 22.6681 21.1872L22.3809 20.8883L22.7853 20.4606C23.0079 20.2262 23.4239 19.7457 23.7111 19.4L24.2325 18.773H24.8068C25.4748 18.773 25.3986 18.8433 25.7033 17.9644C26.0783 16.8804 26.1779 16.23 26.1779 14.7593C26.1779 13.9331 26.1486 13.312 26.1017 13.0307C25.7091 10.8393 24.9064 9.14 23.6349 7.80403C22.7442 6.8665 21.8419 6.29227 20.9512 6.09305C20.4063 5.97 17.8281 5.97 17.2422 6.08719ZM17.2539 9.2982C17.7051 10.4935 18.7363 11.6068 20.1719 12.4565C20.8165 12.8373 21.3731 13.2944 22.3458 14.2436C22.7853 14.6714 23.1603 15.0229 23.1896 15.0229C23.213 15.0229 23.2189 14.8882 23.2013 14.73C23.1603 14.3667 22.9024 13.8803 22.504 13.3823C22.2052 13.019 22.2052 13.0131 22.3985 13.1245C22.5099 13.1831 22.7853 13.4174 23.0138 13.646C23.465 14.0971 23.7696 14.6362 23.9572 15.3159C24.0861 15.8023 24.0861 16.7398 23.9572 17.4722L23.8634 18.023L22.961 19.0894C21.9298 20.3082 21.5489 20.6715 20.9922 20.9645C20.0547 21.4567 18.7305 21.486 17.834 21.0289C17.3183 20.7711 16.8964 20.3961 15.8769 19.3062L14.8515 18.2047L14.7343 17.7125C14.0311 14.8647 14.4413 12.3159 15.9413 10.1888C16.2753 9.72009 16.9902 8.87046 17.0546 8.87046C17.0781 8.87046 17.166 9.06382 17.2539 9.2982ZM17.4941 21.6149C18.1152 21.9079 18.7598 22.0192 19.586 21.9782C20.3653 21.9372 20.7989 21.8317 21.379 21.5504L21.7891 21.3454L22.463 21.9958L23.131 22.6462L22.9142 23.0681C22.3341 24.1872 21.3087 24.9783 19.9668 25.3474C19.3047 25.5232 18.0625 25.5232 17.3886 25.3415C15.9882 24.9724 15.0624 24.1403 14.8339 23.0622C14.7753 22.7575 14.7753 22.7516 14.9394 22.6227C15.3144 22.3298 16.0058 21.6969 16.2753 21.3981L16.5683 21.0758L16.8203 21.2457C16.955 21.3395 17.2597 21.5036 17.4941 21.6149ZM28.9788 22.611C31.3987 22.9743 33.3441 24.7322 33.9828 27.1228C34.1175 27.6385 34.1351 27.8201 34.1351 28.617C34.1351 29.4139 34.1175 29.5956 33.9828 30.1053C32.8812 34.2421 28.0647 36.0117 24.5958 33.5507C23.4708 32.7538 22.6739 31.6229 22.2462 30.2225C22.0938 29.7362 22.0821 29.6307 22.0821 28.617C22.0821 27.6033 22.0938 27.4978 22.2403 27.0056C22.961 24.6091 24.8771 22.9391 27.2971 22.5876C27.8361 22.5114 28.3518 22.5173 28.9788 22.611Z" fill="#E18D8A"/>
<path d="M28.4632 24.4568C27.9007 24.574 27.2034 24.9197 27.2034 25.0837C27.2034 25.1306 27.4436 25.6228 27.7307 26.1736L28.2581 27.1756V29.7889C28.2581 31.746 28.2757 32.4199 28.3284 32.4726C28.428 32.5722 29.6702 32.5722 29.7698 32.4726C29.8226 32.4199 29.8401 31.746 29.8401 29.8007V27.2049L30.3382 26.1678C30.6136 25.5935 30.8363 25.1072 30.8363 25.0779C30.8363 24.9373 30.1097 24.5564 29.6761 24.4626C29.3245 24.3923 28.8147 24.3865 28.4632 24.4568ZM29.5472 27.9139V28.4412H29.0491H28.5511V27.9139V27.3865H29.0491H29.5472V27.9139ZM29.5472 30.5507V32.3085H29.0491H28.5511V30.5507V28.7928H29.0491H29.5472V30.5507Z" fill="#E18D8A"/>
<path d="M26.1546 25.447C26.0022 25.5994 25.9612 26.5896 25.9847 29.8768L26.0022 32.5136H26.471H26.9398V29.1444C26.9398 27.2928 26.9222 25.7049 26.8987 25.6228C26.8226 25.3533 26.3597 25.242 26.1546 25.447ZM26.6761 26.9764V27.3865H26.471H26.2659V26.9764V26.5662H26.471H26.6761V26.9764ZM26.6761 29.994V32.2499H26.471H26.2659V29.994V27.7381H26.471H26.6761V29.994Z" fill="#E18D8A"/>
<path d="M9.61323 24.4685C8.76946 24.9489 8.01944 25.5232 7.67959 25.945C7.39247 26.3083 6.66003 27.6795 6.49011 28.1775C6.32604 28.6639 6.05065 30.1932 6.00963 30.8143C5.96861 31.494 6.0565 31.7987 6.31432 31.8983C6.40222 31.9335 7.08192 31.9569 7.87295 31.9569H9.27338V30.2342C9.27338 28.5467 9.27338 28.5115 9.40815 28.3182C9.47846 28.2127 9.63081 28.0603 9.73628 27.99C9.91206 27.867 10.0058 27.8552 10.6093 27.8552H11.2832L11.248 27.4158C11.2246 27.1755 11.1543 26.7419 11.0957 26.449C10.9375 25.7341 10.3925 24.1052 10.3047 24.1052C10.2695 24.1052 9.95894 24.2692 9.61323 24.4685Z" fill="#E18D8A"/>
<path d="M10.6152 29.3494C10.4043 29.4666 10.2461 29.8065 10.2988 30.0584C10.4043 30.6444 11.1426 30.826 11.5293 30.3631C11.6699 30.1991 11.6875 30.1346 11.6582 29.8826C11.6406 29.6483 11.5937 29.5604 11.4473 29.4256C11.2363 29.2381 10.8789 29.2029 10.6152 29.3494Z" fill="#E18D8A"/>
</svg>
